<svg id="Layer_1" data-name="Layer 1" xmlns="http://www.w3.org/2000/svg" viewBox="0 0 170 56"><defs><style>.cls-1,.cls-3,.cls-4{fill:#d13239;}.cls-2{fill:#231f20;}.cls-3{stroke:#d13239;stroke-miterlimit:10;stroke-width:0.25px;}.cls-3,.cls-4{fill-rule:evenodd;}.cls-5{fill:#fff;}</style></defs><title>Artboard 1</title><rect class="cls-1" x="2.17" y="43.91" width="166.27" height="11.65"/><path class="cls-2" d="M109,34.83c-1-.37-1.85-.72-1.85-1.26,0-1.2.55-1.79,1.68-1.79s1.69.58,1.69,1.79a.59.59,0,0,0,1.17,0c0-1.2-.75-2.49-2.87-2.49s-2.86,1.28-2.86,2.49c0,1.41,1.54,2,2.89,2.53,1,.38,1.87.73,1.87,1.29a1.68,1.68,0,0,1-1.91,1.75,1.71,1.71,0,0,1-1.92-1.76.59.59,0,0,0-1.17,0c0,1.19,1,2.47,3.09,2.47s3.08-1.24,3.08-2.46C111.87,36,110.32,35.37,109,34.83Z"/><path class="cls-2" d="M113.89,31.33a.56.56,0,0,0-.44.19.6.6,0,0,0-.15.4.57.57,0,0,0,.58.59h0a.56.56,0,0,0,.44-.19.6.6,0,0,0,.15-.4A.57.57,0,0,0,113.89,31.33Z"/><path class="cls-2" d="M113.3,33.57v5.7a.59.59,0,0,0,1.17,0v-5.7A.59.59,0,0,0,113.3,33.57Z"/><path class="cls-2" d="M119.14,33h-.05a2.15,2.15,0,0,0-1.53.53.59.59,0,0,0-1.17.05v5.7a.59.59,0,0,0,1.17,0v-3.8c0-.66.2-1.78,1.53-1.78h0c1.33,0,1.53,1.11,1.53,1.78v3.81a.57.57,0,0,0,.58.58.59.59,0,0,0,.42-.17.57.57,0,0,0,.16-.42v-3.8A2.43,2.43,0,0,0,119.14,33Z"/><path class="cls-2" d="M128.85,33a.58.58,0,0,0-.59.59v.34a2.28,2.28,0,0,0-1.91-.93c-1.84,0-3.08,1.38-3.08,3.44s1.24,3.44,3.08,3.44a2.28,2.28,0,0,0,1.91-.93v.34c0,.76-.46,2.32-1.89,2.33A.34.34,0,0,0,126,42a.34.34,0,0,0,.35.35h0a3.19,3.19,0,0,0,3.07-3V33.59a.58.58,0,0,0-.16-.43A.6.6,0,0,0,128.85,33Zm-2.5,6.17c-1.77,0-1.91-2.1-1.91-2.74s.14-2.73,1.91-2.73,1.91,2.09,1.91,2.73S128.12,39.16,126.35,39.16Z"/><path class="cls-2" d="M135.85,33.57v.34a2.28,2.28,0,0,0-1.91-.93c-1.84,0-3.08,1.38-3.08,3.44s1.24,3.44,3.08,3.44a2.28,2.28,0,0,0,1.91-.93v.34a.59.59,0,0,0,1.17,0v-5.7A.59.59,0,0,0,135.85,33.57Zm-1.91,5.59c-1.77,0-1.91-2.1-1.91-2.74s.14-2.73,1.91-2.73,1.91,2.09,1.91,2.73S135.71,39.16,133.94,39.16Z"/><path class="cls-2" d="M142,33a2.3,2.3,0,0,0-1.91.91v-.33a.59.59,0,0,0-1.17,0v8.14a.59.59,0,0,0,1.17,0V38.95a2.3,2.3,0,0,0,1.91.91c1.84,0,3.08-1.38,3.08-3.44S143.86,33,142,33Zm0,6.17c-1.77,0-1.91-2.1-1.91-2.74s.14-2.73,1.91-2.73,1.91,2.09,1.91,2.73S143.78,39.16,142,39.16Z"/><path class="cls-2" d="M149.13,33c-1.84,0-3.08,1.38-3.08,3.44s1.24,3.44,3.08,3.44,3.08-1.38,3.08-3.44S151,33,149.13,33Zm0,6.17c-1.77,0-1.91-2.1-1.91-2.74s.14-2.73,1.91-2.73S151,35.78,151,36.42,150.9,39.16,149.13,39.16Z"/><path class="cls-2" d="M156.61,33a2.18,2.18,0,0,0-1.79.85v-.27a.59.59,0,0,0-1.17,0v5.7a.59.59,0,0,0,1.17,0V36.33c0-.62.15-2.64,1.79-2.64a.35.35,0,0,0,0-.7Z"/><path class="cls-2" d="M163.61,36.42c0-2.05-1.24-3.44-3.08-3.44s-3.08,1.38-3.08,3.44,1.24,3.44,3.08,3.44a3,3,0,0,0,2.71-1.49.56.56,0,0,0,0-.56.63.63,0,0,0-.52-.28.56.56,0,0,0-.51.34,1.9,1.9,0,0,1-1.66,1.29c-1.4,0-1.78-1.3-1.87-2.15H163A.59.59,0,0,0,163.61,36.42Zm-3.08-2.73c1.68,0,1.89,1.88,1.91,2.63h-3.81C158.64,35.57,158.85,33.7,160.53,33.7Z"/><path class="cls-3" d="M30.82,3.85c-.53-.34-.89-.24-.93-.08s0,.27.26.49c2.1,1.84,6.31,6.17,7.13,12.22.88,6.53-1.62,11.85-2.06,8.68a34.45,34.45,0,0,0-.76-4.36,20.73,20.73,0,0,0-1.12-3.35,8,8,0,0,0-.6-1.1c-1.25-1.89-3-1.68-3.87.06C27.27,19.47,27.8,36.13,22,35.28c-2.26-.34-1.73-3-2.14-9.57-.77-12.37-8.24-13-7.38-13.52,1-.61,3.51.61,7.76.78,2.6.1,6.36-.35,7.14-1.61s-.2-3.44-2.89-5.45c-2.29-1.71-5-2.56-2.87-3.15a13.41,13.41,0,0,1,4.19-.15c.85.1,1.82.28,2.33.34s.65-.27-.05-.67A15.57,15.57,0,0,0,23.6.79,19.09,19.09,0,0,0,11.4,36.56c.93.47,1.44.62,1.54.37,0-.07,0-.16-.12-.26C12,35.94,7.39,33,5.42,28A15,15,0,0,1,4.35,20,3.79,3.79,0,0,1,7.68,17c4.43-.26,7.18,4.77,8.22,12s2.71,9.21,5.68,9.45c4.14.34,8.7-4.68,9.15-15.76,0-1.23.25-1.75.67-1.74s1.63,3.77,1.8,8.38c.09,2.39.69,3.76,2.21,1.55a21.19,21.19,0,0,0,3.23-7.72A18.81,18.81,0,0,0,30.82,3.85ZM14.31,7s1.94-1.54,3.42-1.5c.91,0,3,1.22,4.11,1.94.61.4,1.66,1.5.41,2-1.48.61-4,.26-7.59-.56C12.46,8.37,14.31,7,14.31,7Z"/><path class="cls-1" d="M133.19,16.3c.21-.12.59-.34,1-.55a5.18,5.18,0,0,1,1.48-.44,3.1,3.1,0,0,1,2.11.31,7.41,7.41,0,0,0,1.34.83c.32.08.48-.16,1.08-.54s1.37-.8,1.78-1a10.26,10.26,0,0,1,3.85-1.28,1,1,0,0,1,1.09.62c.17.5-.13,1.3-.75,1.25A6.76,6.76,0,0,0,144,16a9.1,9.1,0,0,0-2.05,1,17.28,17.28,0,0,0-1.7,1.32,2.06,2.06,0,0,1-1.88.56,2,2,0,0,1-.61-.79c-.47-1-1.5-1.19-2.67-.52s-2.39,1.51-2.88,1.72-2.32.54-3.07-.53c-1.54-2.22.94-5.84,4-5.59.88.07,1.16.24,1.42.6s.19,1.26-.25,1.23c-1.74-.12-3.51.23-3.75,1.78,0,0,0,.57.19.69a1.1,1.1,0,0,0,1-.11C132.14,17.07,132.75,16.54,133.19,16.3Z"/><path class="cls-4" d="M100.18,10a34.89,34.89,0,0,0,4.37.09,4.77,4.77,0,0,1,1.44.06,1.64,1.64,0,0,1,.87,1.56c-.18.91-1.26.59-2.18.44a22.69,22.69,0,0,0-4.93-.31,7,7,0,0,0-1,0c-.35.09-.65.67-.93,1.09a15.62,15.62,0,0,0-1.39,2.61c-.23.52-.45,1.24-.08,1.42.76.38,1.87-1.25,3.25-1.67a2.75,2.75,0,0,1,2.09.19,2.71,2.71,0,0,1,1,3.24,1.19,1.19,0,0,1-.72.62,1,1,0,0,1-1.28-.72c-.09-.42.24-.75.22-1-.08-.81-1-.47-1.56-.12-.88.6-1.87,1.67-3.12,1.81a2.91,2.91,0,0,1-.75,0,1.67,1.67,0,0,1-1.19-1.22,4.67,4.67,0,0,1,.12-1.93,22.58,22.58,0,0,1,2-4.5,15,15,0,0,0-3.31-.1c-1.21,0-2.18-.1-3.2-.14-2-.1-4.1-.07-6.15-.15a12.22,12.22,0,0,0-1.53.06,5.71,5.71,0,0,1-1.81.13c-.55-.13-1.19-.56-1.21-1.06a1.18,1.18,0,0,1,.62-1A9.21,9.21,0,0,1,82,9.37c4.05,0,7.28.12,11,.4,1,.07,2.13.17,3.29.18a9,9,0,0,0,1.35,0c.33-.09.85-.92,1.09-1.19.39-.42,1.54-1.65,2.09-.66S100.48,9.68,100.18,10Z"/><path class="cls-4" d="M73,14.13a3.3,3.3,0,0,0-2.26,0c-.67.22-2.64,1.49-3.8,2.07a21.93,21.93,0,0,1-3.29,1.57c-1,.22-2.54.31-2.75-.62a4.5,4.5,0,0,0,3.9-2.59,2.3,2.3,0,0,0-.22-2.26,2,2,0,0,0-2.1-.42A4.71,4.71,0,0,0,60,14.07a8.33,8.33,0,0,0-.52,1l-.08.2c0,.06,0,.07-.24,0a3.25,3.25,0,0,1-.61-.22,1.58,1.58,0,0,1-.78-.87c-.16-.45-.1-1.08-.53-1.09s-.68.82-.59,1.44A3,3,0,0,0,57.37,16,4.13,4.13,0,0,0,59,17a3.56,3.56,0,0,0,.21.85A2.52,2.52,0,0,0,61,19.54a5.89,5.89,0,0,0,3.08-.13c.59-.19,2.32-1,3-1.39s2.3-1.31,2.94-1.61c.43-.2,1.2-.72,1.76-.66.25,0,.53.15.53.41,0,.43-.51.69-.84.91s-.9.38-.94.84a.81.81,0,0,0,.75.81,2.17,2.17,0,0,0,1-.22,3.75,3.75,0,0,0,1.43-1.22A2.25,2.25,0,0,0,73,14.13Zm-9.82-.73c.53,0,.46.73.13,1.12a3,3,0,0,1-2.21.94A3,3,0,0,1,63.22,13.39Z"/><path class="cls-4" d="M94.63,30.53c-.36,0-.85,0-.94.06a42.46,42.46,0,0,1-5.79,0s-3.05-.14-6.86-.72c-3.13-.48-6-1.1-8.48-1.71a41.94,41.94,0,0,1-15.64-7.71,22.54,22.54,0,0,1-5.47-5.93,5.54,5.54,0,0,1,1.37-2.09,20.29,20.29,0,0,1,3.56-1.91,30.63,30.63,0,0,0,4.35-2.44c.2-.14.4-.28.58-.43a3.49,3.49,0,0,0,1-1,5.13,5.13,0,0,0,.44-1.81A4.88,4.88,0,0,0,62,1.73C61.65,1.17,61.1.41,60.44.48a3.27,3.27,0,0,0-.75.4,18.28,18.28,0,0,0-4.18,3.91,37.13,37.13,0,0,0-4,5.25,3,3,0,0,1-1.72.37c-.53-.06-.89-.4-1.28-.44-.58-.06-.85.38-.78.94a8.59,8.59,0,0,0,1.16,2.65c-.83,1.73-2.26,3.73-3.18,5.56a6.44,6.44,0,0,0-.78,2.16c-.15,1.63,1.79,2.36,2.47,1.09a4.56,4.56,0,0,0-.09-.9c-.05-1.09.77-2,1.25-2.84a7.2,7.2,0,0,1,1.84-2.5,48.49,48.49,0,0,0,5.28,6.3c.77.77,4.24,3.44,5.15,4.08a26.8,26.8,0,0,0,2.9,1.71,26,26,0,0,0,3.67,1.48,50.7,50.7,0,0,0,6.05,1.43,50.06,50.06,0,0,0,7.19.68c2.11,0,4,0,6.82-.12,1-.05,5.55-.44,6.79-.72.09,0,.81-.2.78-.35S94.84,30.53,94.63,30.53ZM58,5.85c.28-.31.61-.67.94-1s.94-1,1.65-.87a4.76,4.76,0,0,1-1.75,2.34,14.24,14.24,0,0,1-2.49,1.56A15.1,15.1,0,0,1,58,5.85Z"/><path class="cls-4" d="M120.74,13.44c-2.74-2.19-5.27,1.44-6.39,3.2-.68,1.07-1.35.59-1.22-1a12.43,12.43,0,0,1,1.49-4.88,16.55,16.55,0,0,1,2.06-2.56.89.89,0,0,0,0-1,1.12,1.12,0,0,0-1.45-.4c-1.26.49-2.72,2.63-3.39,4.94-1,3.34-1.38,7.68,1.44,8.21,2.5.46,3.82-6.4,6.29-4.77,1.18.78,1.38,2.38,2.69,3.42,3.13,2.49,7.7-5.26,5.93-6.75-.28-.24-.87-.43-1.2-.1s-.13.6-.19,1a5.34,5.34,0,0,1-2.16,3.95C123.07,18,122,14.45,120.74,13.44Z"/><path class="cls-1" d="M79.65,16.34c.22-.12.58-.34,1-.55a5.22,5.22,0,0,1,1.48-.44,3.1,3.1,0,0,1,2.11.31,7.27,7.27,0,0,0,1.34.83c.32.08.48-.16,1.08-.54s1.37-.8,1.77-1a10.28,10.28,0,0,1,3.86-1.28,1,1,0,0,1,1.09.62c.17.5-.13,1.3-.75,1.25a6.7,6.7,0,0,0-2.23.47,9.1,9.1,0,0,0-2.06,1,17.33,17.33,0,0,0-1.7,1.32,2.06,2.06,0,0,1-1.89.56,2,2,0,0,1-.61-.79c-.47-1-1.5-1.19-2.67-.52S79.13,19,78.63,19.26s-2.32.54-3.06-.53c-1.54-2.22.94-5.84,4-5.59.88.07,1.16.24,1.42.6S81.21,15,80.76,15c-1.74-.12-3.51.23-3.75,1.78,0,0,0,.57.19.69a1.1,1.1,0,0,0,1-.11C78.6,17.11,79.22,16.58,79.65,16.34Z"/><path class="cls-1" d="M153.83,7.87c.48.91-1.94,2.9-3.15,5.38a11.11,11.11,0,0,0-1.09,2.95c-.26,1.41.07,1.46.66.84,1.19-1.25,3.22-3.72,6.85-4.07a4.06,4.06,0,0,1,1.88.23c.75.33.26,1.51-.51,1.5a3.88,3.88,0,0,0-1.65-.13c-1.79.33-2.28,1.5-2,2.42.34,1.29,2.27-.3,3.46-1.05a8.08,8.08,0,0,0,2.19-2.18c.15-.5.23-1,.42-1.55a12,12,0,0,1,2.32-4.54c1.18-1.43,2.54-.51,1.74,1.29a32.68,32.68,0,0,1-2.82,5c-.17.27-.36.62-.52.91-.28,1.25.12,2.75.65,2.5,2.13-1,1.24,2-.3,1.69-1.21-.22-1.62-2-1.69-3-.21.22-.32.33-.54.53-1.87,1.68-4.54,3.57-6.09,2.13a2.54,2.54,0,0,1-.59-2.35,21.23,21.23,0,0,0-1.83,2c-.71.76-1.45,1.34-2.46,1.06-1.36-.38-1.27-2.1-1-3.5a15.74,15.74,0,0,1,1.46-3.78A44.24,44.24,0,0,1,152,8C152.46,7.42,153.46,7.18,153.83,7.87Z"/><path class="cls-1" d="M166,7.91h1.33v.2h-.56V9.5h-.23V8.11H166Z"/><path class="cls-1" d="M168.79,7.91H169V9.5h-.23V8.26l-.49.61h0l-.5-.61V9.5h-.23V7.91h.22l.53.65Z"/><path class="cls-5" d="M49.15,47.06a.57.57,0,0,0-.59.51,1.92,1.92,0,0,0-1.35-.51,2.53,2.53,0,0,0-2.52,2.8,2.53,2.53,0,0,0,2.52,2.8,1.9,1.9,0,0,0,1.35-.51.59.59,0,0,0,1.17-.08V47.64A.57.57,0,0,0,49.15,47.06Zm-.59,2.8c0,.47-.1,2-1.34,2s-1.35-1.52-1.35-2,.1-2,1.35-2S48.56,49.39,48.56,49.85Z"/><path class="cls-5" d="M65.64,48.53H63.17a.4.4,0,0,0-.41.41.41.41,0,0,0,.1.27.4.4,0,0,0,.3.13H65c0,1.15-.4,2.51-1.88,2.51s-1.9-1.49-1.9-2.74c0-1,.25-2.73,1.9-2.73a1.88,1.88,0,0,1,1.58,1.29.57.57,0,0,0,.52.33.63.63,0,0,0,.52-.29.58.58,0,0,0,0-.57,3,3,0,0,0-2.64-1.57c-1.93,0-3.08,1.32-3.08,3.54s1.12,3.54,3.08,3.54,3.07-1.29,3.07-3.54A.59.59,0,0,0,65.64,48.53Z"/><path class="cls-5" d="M72.27,47.05a2.53,2.53,0,0,0-2.52,2.8,2.53,2.53,0,0,0,2.52,2.8,2.47,2.47,0,0,0,2.23-1.23.57.57,0,0,0,0-.56.62.62,0,0,0-.52-.28.57.57,0,0,0-.52.34,1.32,1.32,0,0,1-1.16.92c-.89,0-1.2-.75-1.3-1.4H74.2a.59.59,0,0,0,.59-.59A2.53,2.53,0,0,0,72.27,47.05Zm0,.82c1.1,0,1.3,1.21,1.34,1.77H70.93C71,49.08,71.17,47.87,72.27,47.87Z"/><path class="cls-5" d="M80.77,47.05h0a1.92,1.92,0,0,0-1.13.32.59.59,0,0,0-.53-.31.57.57,0,0,0-.59.59v4.42a.59.59,0,0,0,1.18,0V49.12a1.56,1.56,0,0,1,.22-.87.94.94,0,0,1,.83-.37c.5,0,1.08.22,1.08,1.24v3a.57.57,0,0,0,.59.58.6.6,0,0,0,.42-.17.57.57,0,0,0,.16-.42V49.12A2,2,0,0,0,80.77,47.05Z"/><path class="cls-5" d="M88.58,47.86a.41.41,0,1,0,0-.81h-.52v-.74a.59.59,0,0,0-1.18,0v.74h-.15a.4.4,0,0,0-.41.41.4.4,0,0,0,.1.27.4.4,0,0,0,.3.13h.15V51a1.54,1.54,0,0,0,1.69,1.69.41.41,0,0,0,0-.81c-.43,0-.5-.27-.52-.89V47.86Z"/><path class="cls-5" d="M93.28,47.06a.57.57,0,0,0-.59.59v4.42a.59.59,0,0,0,1.18,0V47.64A.57.57,0,0,0,93.28,47.06Z"/><path class="cls-5" d="M93.28,45.68a.57.57,0,0,0-.59.59.61.61,0,0,0,.15.4.58.58,0,0,0,.44.19.57.57,0,0,0,.6-.59.6.6,0,0,0-.15-.4A.58.58,0,0,0,93.28,45.68Z"/><path class="cls-5" d="M100.21,47.05h0a1.92,1.92,0,0,0-1.13.32.59.59,0,0,0-.53-.31.57.57,0,0,0-.59.59v4.42a.59.59,0,0,0,1.18,0V49.12a1.56,1.56,0,0,1,.23-.87.94.94,0,0,1,.83-.37c.5,0,1.09.22,1.09,1.24v3a.57.57,0,0,0,.59.58.59.59,0,0,0,.42-.17.57.57,0,0,0,.16-.42V49.12A2,2,0,0,0,100.21,47.05Z"/><path class="cls-5" d="M110.6,47.05a.58.58,0,0,0-.59.51,1.93,1.93,0,0,0-1.35-.51,2.53,2.53,0,0,0-2.52,2.8,2.53,2.53,0,0,0,2.52,2.8,1.93,1.93,0,0,0,1.34-.5c0,.48-.32,1.58-1.33,1.59a.4.4,0,0,0-.41.41.41.41,0,0,0,.1.28.4.4,0,0,0,.3.13,2.62,2.62,0,0,0,2.51-2.49V47.65a.57.57,0,0,0-.16-.42A.6.6,0,0,0,110.6,47.05Zm-.6,2.8c0,.47-.1,2-1.34,2s-1.35-1.52-1.35-2,.1-2,1.35-2S110,49.39,110,49.85Z"/><path class="cls-5" d="M127.12,47.84a2.28,2.28,0,0,0-.59-1.67,2.21,2.21,0,0,0-1.64-.59h-2.4a.59.59,0,0,0-.59.59v5.88a.59.59,0,0,0,1.18,0V50h1.75A4,4,0,0,1,126,52.16a.56.56,0,0,0,.57.49.61.61,0,0,0,.47-.21.58.58,0,0,0,.12-.48,3.75,3.75,0,0,0-1.31-2.12A2.25,2.25,0,0,0,127.12,47.84Zm-1.18,0a1.64,1.64,0,0,1-.4,1.12.88.88,0,0,1-.65.27h-1.82V46.4h1.82a1,1,0,0,1,.74.25A1.71,1.71,0,0,1,125.94,47.84Z"/><path class="cls-5" d="M133.17,47.05a2.53,2.53,0,0,0-2.52,2.8,2.53,2.53,0,0,0,2.52,2.8,2.47,2.47,0,0,0,2.23-1.23.57.57,0,0,0,0-.56.63.63,0,0,0-.52-.28.57.57,0,0,0-.52.34,1.32,1.32,0,0,1-1.16.92c-.89,0-1.2-.75-1.3-1.4h3.23a.59.59,0,0,0,.59-.59A2.53,2.53,0,0,0,133.17,47.05Zm1.34,2.59h-2.67c0-.55.23-1.76,1.34-1.76S134.47,49.08,134.51,49.64Z"/><path class="cls-5" d="M141.35,49.23c-.36-.13-1-.34-1-.5a.8.8,0,0,1,.79-.87.76.76,0,0,1,.79.87.59.59,0,0,0,1.18,0,1.8,1.8,0,0,0-2-1.69,1.84,1.84,0,0,0-2,1.69c0,1,1.11,1.42,2,1.74.35.13.94.34.94.49,0,.4-.17.87-1,.87-.65,0-1-.29-1-.87A.59.59,0,0,0,139,51c0,.84.67,1.68,2.15,1.68s2.15-.85,2.15-1.68C143.34,49.95,142.24,49.55,141.35,49.23Z"/><path class="cls-5" d="M149.2,47.05a2.53,2.53,0,0,0-2.52,2.8,2.54,2.54,0,1,0,5,0A2.53,2.53,0,0,0,149.2,47.05Zm1.35,2.8c0,.47-.1,2-1.35,2s-1.34-1.52-1.34-2,.1-2,1.34-2S150.54,49.39,150.54,49.85Z"/><path class="cls-5" d="M157.86,47.05a1.82,1.82,0,0,0-1.26.47.59.59,0,0,0-1.17.12v4.42a.59.59,0,0,0,1.18,0V49.78c0-.45.1-1.91,1.25-1.91a.41.41,0,0,0,0-.81Z"/><path class="cls-5" d="M163.11,51.84c-.43,0-.5-.27-.52-.89V47.86h.52a.41.41,0,1,0,0-.81h-.52v-.74a.59.59,0,0,0-1.18,0v.74h-.15a.4.4,0,0,0-.41.41.41.41,0,0,0,.1.27.4.4,0,0,0,.3.13h.15V51a1.54,1.54,0,0,0,1.69,1.69.41.41,0,0,0,0-.81Z"/><path class="cls-2" d="M139.43,25a.3.3,0,0,1-.59,0,1,1,0,0,0-1.13-1.19c-1,0-1.12.67-1.12,1.19,0,.88,3,.9,3,2.39,0,.79-.65,1.47-1.85,1.47s-1.86-.71-1.86-1.48a.3.3,0,0,1,.59,0,1.13,1.13,0,0,0,1.27,1.17A1.12,1.12,0,0,0,139,27.39c0-.9-3-.9-3-2.39,0-.79.5-1.48,1.71-1.48S139.43,24.22,139.43,25Z"/><path class="cls-2" d="M140.91,27.08c.07.75.4,1.48,1.25,1.48a1.24,1.24,0,0,0,1.1-.85.3.3,0,1,1,.53.25,1.82,1.82,0,0,1-1.63.89,1.86,1.86,0,0,1-1.85-2.08,1.87,1.87,0,1,1,3.71,0,.3.3,0,0,1-.3.3Zm0-.3h2.52c0-.85-.3-1.78-1.26-1.78s-1.26.93-1.26,1.77Z"/><path class="cls-2" d="M145.05,25a.3.3,0,0,1,.59,0v.15a1.22,1.22,0,0,1,1-.44,1.45,1.45,0,0,1,1.63,1.48v2.37a.29.29,0,1,1-.59,0V26.19c0-.58-.24-1.19-1-1.18s-1,.6-1,1.18v2.37a.3.3,0,0,1-.59,0Z"/><path class="cls-2" d="M150.09,25v2.67c0,.39,0,.89.59.89a.15.15,0,0,1,0,.3,1.07,1.07,0,0,1-1.19-1.18h0V25h-.3a.15.15,0,1,1,0-.3h.3v-.77a.3.3,0,0,1,.59,0v.77h.59a.15.15,0,1,1,0,.3Z"/><path class="cls-2" d="M151.58,26.79a1.87,1.87,0,1,1,3.71,0,1.87,1.87,0,1,1-3.71,0Zm.59,0c0,.84.3,1.78,1.26,1.78s1.26-.94,1.26-1.78-.3-1.77-1.26-1.77S152.17,25.95,152.17,26.79Z"/><path class="cls-2" d="M159,25.89a.3.3,0,0,1-.59,0,.79.79,0,0,0-.81-.88.8.8,0,0,0-.82.88c0,.6,2.38.61,2.37,1.79,0,.54-.47,1.18-1.56,1.18S156,28.28,156,27.68a.3.3,0,0,1,.59,0c0,.37.15.88,1,.88a.84.84,0,0,0,1-.87h0c0-.6-2.36-.59-2.37-1.79a1.3,1.3,0,0,1,1.41-1.18A1.27,1.27,0,0,1,159,25.89Z"/><path class="cls-2" d="M159.88,26.79a1.86,1.86,0,0,1,1.85-2.08,1.36,1.36,0,0,1,1.26.75V25a.3.3,0,0,1,.59,0v3.56a.3.3,0,0,1-.59,0v-.45a1.36,1.36,0,0,1-1.26.75A1.86,1.86,0,0,1,159.88,26.79Zm.59,0c0,.84.3,1.78,1.26,1.78s1.26-.94,1.26-1.78-.3-1.77-1.26-1.77S160.48,25.95,160.48,26.79Z"/></svg>